# xmcd
#
# Track frame offsets: 
#        150
#        21197
#        42079
#        58994
#        76168
#        89986
#        106174
#        124537
#        144553
#        160604
#        183698
#
# Disc length: 2687 seconds
#
# Revision: 0
# Processed by: cddbd v1.5.2PL0 Copyright (c) Steve Scherf et al.
# Submitted via: ExactAudioCopyFreeDBPlugin 1.0
#
DISCID=900a7d0b
DTITLE=Reba McEntire - Reba Duets
DYEAR=2007
DGENRE=Country
TTITLE0=When You Love Someone Like That (With LeAnn Rimes)
TTITLE1=Does the Wind Stilll Blow in Oklahoma (With Ronnie Dunn)
TTITLE2=Because of You (With Kelly Clarkson)
TTITLE3=Faith in Love  (With Rascal Flatts)
TTITLE4=She Can't Save Him (With Trisha Yearwood)
TTITLE5=Everyday People (With Carole King)
TTITLE6=Every Other Weekend (With Kenny Chesney)
TTITLE7=These Broken Hearts (With Vince Gill)
TTITLE8=Sleeping With The Telephone (With Faith Hill)
TTITLE9=The Only Promise That Remains (With Justin Timberlake)
TTITLE10=Break Each Other's Hearts Again  (With Don Henley)
EXTD=
EXTT0=
EXTT1=
EXTT2=
EXTT3=
EXTT4=
EXTT5=
EXTT6=
EXTT7=
EXTT8=
EXTT9=
EXTT10=
PLAYORDER=
